<?xml version="1.0" standalone="no"?>
<!DOCTYPE svg PUBLIC "-//W3C//DTD SVG 20010904//EN"
 "http://www.w3.org/TR/2001/REC-SVG-20010904/DTD/svg10.dtd">
<svg version="1.0" xmlns="http://www.w3.org/2000/svg"
 width="512.000000pt" height="512.000000pt" viewBox="0 0 512.000000 512.000000"
 preserveAspectRatio="xMidYMid meet">
<metadata>
Created by potrace 1.11, written by Peter Selinger 2001-2013
</metadata>
<g transform="translate(0.000000,512.000000) scale(0.100000,-0.100000)"
fill="#000000" stroke="none">
<path d="M162 5103 c-23 -8 -62 -35 -86 -59 -83 -83 -77 151 -74 -2504 3
-2277 4 -2366 21 -2399 29 -53 91 -107 143 -125 43 -15 254 -16 2408 -13
l2361 2 47 24 c54 28 76 49 110 106 l23 40 3 2366 c2 2663 10 2423 -75 2506
-82 79 134 73 -2492 72 -2060 -1 -2351 -2 -2389 -16z"/>
</g>
</svg>
